<?xml version="1.0" encoding="UTF-8" standalone="no"?>
<!-- Generator: Adobe Illustrator 16.0.4, SVG Export Plug-In . SVG Version: 6.00 Build 0)  -->

<svg
   xmlns:dc="http://purl.org/dc/elements/1.1/"
   xmlns:cc="http://creativecommons.org/ns#"
   xmlns:rdf="http://www.w3.org/1999/02/22-rdf-syntax-ns#"
   xmlns:svg="http://www.w3.org/2000/svg"
   xmlns="http://www.w3.org/2000/svg"
   xmlns:sodipodi="http://sodipodi.sourceforge.net/DTD/sodipodi-0.dtd"
   xmlns:inkscape="http://www.inkscape.org/namespaces/inkscape"
   version="1.1"
   id="circle_of_friends__x5F__black"
   x="0px"
   y="0px"
   width="425.197px"
   height="425.197px"
   viewBox="0 0 425.197 425.197"
   enable-background="new 0 0 425.197 425.197"
   xml:space="preserve"
   inkscape:version="0.91 r13725"
   sodipodi:docname="00_logos.svg"
   inkscape:export-filename="icon.png"
   inkscape:export-xdpi="6.77"
   inkscape:export-ydpi="6.77"><metadata
     id="metadata13"><rdf:RDF><cc:Work
         rdf:about=""><dc:format>image/svg+xml</dc:format><dc:type
           rdf:resource="http://purl.org/dc/dcmitype/StillImage" /><dc:title /></cc:Work></rdf:RDF></metadata><defs
     id="defs11" /><sodipodi:namedview
     pagecolor="#4cffff"
     bordercolor="#666666"
     borderopacity="1"
     objecttolerance="10"
     gridtolerance="10"
     guidetolerance="10"
     inkscape:pageopacity="0"
     inkscape:pageshadow="2"
     inkscape:window-width="1855"
     inkscape:window-height="1056"
     id="namedview9"
     showgrid="false"
     showguides="false"
     inkscape:zoom="1.5698813"
     inkscape:cx="173.84332"
     inkscape:cy="209.6873"
     inkscape:window-x="1985"
     inkscape:window-y="24"
     inkscape:window-maximized="1"
     inkscape:current-layer="g3377" /><g
     inkscape:groupmode="layer"
     id="layer1"
     inkscape:label="Ubuntu CoF"
     style="display:none"
     sodipodi:insensitive="true"><path
       style="display:inline;opacity:0.5;fill:#ffffff"
       d="m 212.60156,70.867188 c -78.278,-10e-7 -141.734372,63.454512 -141.734372,141.728512 0,78.279 63.455372,141.73438 141.734372,141.73438 78.279,0 141.72852,-63.45538 141.72852,-141.73438 0,-78.275 -63.44952,-141.728513 -141.72852,-141.728512 z m 46.38477,44.027342 c 2.93666,0.0764 5.89726,0.865 8.61914,2.4375 8.721,5.027 11.69997,16.16972 6.66797,24.88672 -5.026,8.715 -16.17072,11.70192 -24.88672,6.66992 -8.716,-5.032 -11.70192,-16.17562 -6.66992,-24.89062 3.46087,-5.99019 9.80888,-9.2716 16.26953,-9.10352 z m -46.38477,19.41602 c 7.11,0 14.0046,0.95437 20.5586,2.73437 1.155,7.404 5.52167,14.23644 12.51367,18.27344 6.987,4.037 15.0864,4.40394 22.0664,1.71094 13.186,13.082 21.74214,30.82378 22.99415,50.55078 l -26.3711,0.41601 c -2.327,-26.55 -24.60872,-47.36328 -51.76172,-47.36328 -7.818,0 -15.24453,1.73422 -21.89453,4.82422 L 177.875,142.41406 c 10.468,-5.187 22.25556,-8.10351 34.72656,-8.10351 z m -43.41211,13.13086 13.54102,22.63281 c -13.363,9.399 -22.09766,24.94448 -22.09766,42.52148 0,17.589 8.73466,33.12721 22.09766,42.53321 l -13.54102,22.63281 c -15.684,-10.48 -27.36592,-26.4565 -32.29492,-45.1875 5.832,-4.698 9.57031,-11.89852 9.57031,-19.97852 0,-8.075 -3.73731,-15.27565 -9.57031,-19.97265 4.929,-18.732 16.61092,-34.70764 32.29492,-45.18164 z m -48.37695,46.93554 c 10.071,0 18.23047,8.15875 18.23047,18.21875 0,10.064 -8.15947,18.22461 -18.23047,18.22461 -10.059,0 -18.2168,-8.15961 -18.2168,-18.22461 0,-10.06 8.1578,-18.21875 18.2168,-18.21875 z m 143.55078,22.82813 26.3711,0.41015 c -1.25201,19.727 -9.80715,37.46865 -22.99415,50.55665 -6.98,-2.693 -15.0794,-2.32607 -22.0664,1.71093 -6.993,4.03 -11.35967,10.86444 -12.51367,18.27344 -6.554,1.783 -13.4496,2.72852 -20.5586,2.72852 -12.472,0 -24.25856,-2.91252 -34.72656,-8.10352 l 12.83203,-23.04297 c 6.651,3.096 14.07753,4.83008 21.89453,4.83008 27.153,0 49.43372,-20.82028 51.76172,-47.36328 z m -6.35547,56.66797 c 6.46096,-0.16972 12.80808,3.11195 16.26758,9.10351 5.032,8.716 2.04508,19.86153 -6.66992,24.89453 -8.716,5.026 -19.85567,2.03908 -24.88867,-6.66992 -5.032,-8.715 -2.04608,-19.85567 6.66992,-24.88867 2.72344,-1.5725 5.68429,-2.36231 8.62109,-2.43945 z"
       id="path5"
       inkscape:connector-curvature="0" /></g><g
     style="display:none"
     inkscape:label="Ubuntu CoF optimized"
     id="g4233"
     inkscape:groupmode="layer"
     sodipodi:insensitive="true"><path
       inkscape:connector-curvature="0"
       id="path4235"
       d="M 212.60142,67.567049 C 132.50116,67.567048 67.567049,132.4993 67.567049,212.59556 c 0,80.10126 64.933111,145.03438 145.034371,145.03438 80.10192,0 145.02852,-64.93312 145.02852,-145.03438 0,-80.09726 -64.9266,-145.028512 -145.02852,-145.028511 z m 47.46453,45.052321 c 3.0053,0.0764 6.0352,0.88546 8.82044,2.49426 8.92362,5.14448 11.97189,16.54658 6.82307,25.4662 -5.14348,8.91828 -16.54758,11.9745 -25.4662,6.82502 -8.91928,-5.14882 -11.9745,-16.55182 -6.82502,-25.4701 3.54139,-6.12945 10.03724,-9.48742 16.64771,-9.31538 z m -47.46453,19.86812 c 7.27566,0 14.33064,0.97681 21.0371,2.79839 1.18206,7.57626 5.65037,14.56776 12.80539,18.69848 7.14936,4.13138 15.43752,4.5069 22.57988,1.7512 13.4929,13.38626 22.24836,31.5412 23.52941,51.72756 l -26.9849,0.42591 c -2.38112,-27.16842 -25.1816,-48.46614 -52.96688,-48.46614 -8.00016,0 -15.59961,1.77448 -22.40405,4.93642 l -13.13101,-23.57955 c 10.71154,-5.30778 22.77366,-8.29227 35.53506,-8.29227 z m -44.42257,13.43644 13.85584,23.16015 c -13.67386,9.61746 -22.6118,25.52528 -22.6118,43.51148 0,17.9982 8.93794,33.89875 22.6118,43.52321 l -13.85584,23.16015 c -16.04964,-10.7242 -28.00348,-27.07294 -33.04732,-46.23954 5.96796,-4.80756 9.79339,-12.17572 9.79339,-20.44382 0,-8.2631 -3.82443,-15.63139 -9.79339,-20.43795 5.04384,-19.16826 16.99768,-35.51548 33.04732,-46.23368 z m -49.50357,48.0285 c 10.3053,0 18.65485,8.34883 18.65485,18.64313 0,10.2983 -8.34955,18.64899 -18.65485,18.64899 -10.2933,0 -18.64118,-8.34969 -18.64118,-18.64899 0,-10.2943 8.34788,-18.64313 18.64118,-18.64313 z m 146.89302,23.36009 26.9849,0.41939 c -1.28105,20.18636 -10.03551,38.34117 -23.52941,51.73409 -7.14236,-2.7557 -15.43052,-2.38085 -22.57988,1.75053 -7.15602,4.12372 -11.62433,11.11722 -12.80539,18.69914 -6.70646,1.82392 -13.76244,2.79188 -21.0371,2.79188 -12.7624,0 -24.82352,-2.9805 -35.53506,-8.29228 l 13.13101,-23.57955 c 6.80544,3.16794 14.40489,4.94228 22.40405,4.94228 27.78528,0 50.58476,-21.30472 52.96688,-48.46548 z m -6.50331,57.98731 c 6.61144,-0.17368 13.1064,3.18389 16.64642,9.31537 5.14882,8.91862 2.0926,20.32353 -6.82502,25.47401 -8.91928,5.14282 -20.31833,2.0866 -25.46815,-6.82502 -5.14948,-8.91828 -2.09426,-20.31833 6.82502,-25.46815 2.7868,-1.60946 5.81629,-2.41775 8.82173,-2.49621 z"
       style="display:inline;opacity:1;fill:#ffffff" /></g><g
     inkscape:groupmode="layer"
     id="layer2"
     inkscape:label="Fedora"
     style="display:none"
     sodipodi:insensitive="true"><g
       id="g3" /><g
       style="display:inline"
       id="g3370"
       transform="matrix(1.0646438,0,0,1.0646564,70.468557,70.466861)"><path
         style="opacity:0.5;fill:#ffffff"
         d="m 212.5957,70.867188 c -78.24199,0 -141.673002,63.406632 -141.728512,141.638672 l 0,109.68164 c 0.04211,17.76308 14.448623,32.14258 32.222652,32.14258 l 109.56446,0 c 78.25105,-0.0307 141.67578,-63.46673 141.67578,-141.72461 0,-78.2787 -63.45719,-141.738282 -141.73438,-141.738282 z m 41.61328,33.597652 c 5.57335,0 9.5362,0.62798 14.69532,1.97657 7.52272,1.96867 13.67127,8.13822 13.67382,15.3125 0,8.67176 -6.29583,14.97851 -15.70507,14.97851 -4.47829,0 -6.10346,-0.85937 -12.66407,-0.85937 -19.36758,0 -35.07735,15.68688 -35.11132,35.05468 l 0,30.50977 c 0,2.73377 2.22263,4.94922 4.96093,4.94922 l 23.06446,0.004 c 8.59393,0 15.53906,6.85509 15.53906,15.47266 0.004,8.67116 -7.0164,15.49805 -15.70313,15.49805 l -27.85742,0 0,35.25781 c 0,36.73493 -29.78374,66.51953 -66.51953,66.51953 -5.57335,0 -9.5362,-0.62992 -14.69531,-1.97851 -7.52272,-1.96868 -13.67127,-8.13628 -13.67383,-15.31055 0,-8.67177 6.29583,-14.97852 15.70508,-14.97852 4.47828,0 6.10346,0.85938 12.66406,0.85938 19.36759,0 35.07736,-15.68884 35.11133,-35.05664 l 0,-30.50781 c 0,-2.73378 -2.22263,-4.94922 -4.96094,-4.94922 l -23.06445,-0.004 c -8.59393,0 -15.53906,-6.85508 -15.53906,-15.47266 -0.005,-8.67115 7.01639,-15.49804 15.70312,-15.49804 l 27.85742,0 0,-35.25781 c 0,-36.73493 29.78374,-66.51954 66.51953,-66.51954 z"
         transform="matrix(0.93928129,0,0,0.93927017,-66.189797,-66.187421)"
         id="voice"
         inkscape:connector-curvature="0" /></g></g><g
     style="display:none"
     inkscape:label="Fedora optimized"
     id="g4237"
     inkscape:groupmode="layer"
     sodipodi:insensitive="true"><g
       id="g4239" /><g
       transform="matrix(1.0871318,0,0,1.0871444,67.159923,67.770911)"
       id="g4241"
       style="display:inline"><path
         inkscape:connector-curvature="0"
         id="path4243"
         d="M 133.77913,-0.18754735 C 60.132351,-0.18754735 0.42667661,59.494471 0.37442676,133.13105 l 0,103.23874 c 0.0396368,16.71966 13.60004924,30.25446 30.33019624,30.25446 l 103.129667,0 c 73.65533,-0.0288 133.35511,-59.73858 133.35511,-133.39946 0,-73.680477 -59.73033,-133.41233735 -133.41027,-133.41233735 z M 172.94844,31.436523 c 5.24604,0 8.97614,0.591091 13.83226,1.860463 7.0809,1.853025 12.86835,7.660164 12.87075,14.413018 0,8.162364 -5.92604,14.098646 -14.78269,14.098646 -4.2153,0 -5.74498,-0.80889 -11.92032,-0.80889 -18.23012,0 -33.01722,14.765406 -33.04919,32.995511 l 0,28.717579 c 0,2.57316 2.09206,4.6585 4.66956,4.6585 l 21.70985,0.004 c 8.08922,0 14.62645,6.4524 14.62645,14.56378 0.004,8.16179 -6.6043,14.58764 -14.78086,14.58764 l -26.22133,0 0,33.18669 c 0,34.5771 -28.03453,62.61211 -62.612809,62.61211 -5.246025,0 -8.976134,-0.59293 -13.832244,-1.86232 -7.080908,-1.85302 -12.868353,-7.65836 -12.870759,-14.41116 0,-8.16241 5.926072,-14.09869 14.782712,-14.09869 4.215269,0 5.744998,0.80892 11.920291,0.80892 18.230123,0 33.017249,-14.76726 33.049219,-32.99737 l 0,-28.71573 c 0,-2.57317 -2.09212,-4.6585 -4.66957,-4.6585 l -21.70987,-0.004 c -8.089206,0 -14.626443,-6.45239 -14.626443,-14.56373 -0.0047,-8.16183 6.604314,-14.58768 14.780866,-14.58768 l 26.221337,0 0,-33.186712 c 0,-34.577056 28.03453,-62.612066 62.61279,-62.612066 z"
         style="opacity:1;fill:#ffffff" /></g></g><g
     inkscape:groupmode="layer"
     id="layer3"
     inkscape:label="Windows"
     style="display:none"
     sodipodi:insensitive="true"><path
       id="path3395"
       d="m 70.867,111.00065 115.84234,-15.727915 0.0506,111.395025 -115.787158,0.65734 z m 115.78716,108.50198 0.0899,111.4921 -115.787154,-15.86998 -0.0065,-96.36997 z m 14.0428,-126.287384 153.59733,-22.348256 0,134.38402 -153.59733,1.21562 z M 354.33,220.55112 354.294,354.32999 200.69667,332.71826 200.48145,220.30065 Z"
       inkscape:connector-curvature="0"
       style="display:inline;opacity:0.5;fill:#ffffff;fill-opacity:1" /></g><g
     inkscape:label="Windows optimized"
     id="g4225"
     inkscape:groupmode="layer"
     style="display:none"
     sodipodi:insensitive="true"><path
       style="display:inline;opacity:1;fill:#ffffff;fill-opacity:1"
       inkscape:connector-curvature="0"
       d="m 66.467109,111.00094 120.242231,-15.728205 0.0506,105.294815 -120.187049,0.65763 z m 120.187051,113.50159 0.0899,106.4922 -120.187045,-15.86969 -0.0065,-91.37007 z m 25.04259,-133.287046 146.79754,-20.348993 0,128.283809 -146.79754,1.21636 z M 358.53,225.55052 358.494,354.32949 211.69646,334.7185 211.48124,225.30078 Z"
       id="path4227"
       sodipodi:nodetypes="cccccccccccccccccscc" /></g><g
     inkscape:groupmode="layer"
     id="layer4"
     inkscape:label="GalliumOS"
     style="display:none"
     sodipodi:insensitive="true"><g
       transform="translate(162.4775,162.6255)"
       id="g42"><g
         id="g20" /><g
         id="g40"><g
           id="g38"><g
             id="g24"><path
               style="fill:#ffffff"
               inkscape:connector-curvature="0"
               d="m 52.553,32.644 c 3.826,0.197 7.29,1.759 9.916,4.211 0.225,0.21 0.442,0.429 0.654,0.651 0.691,0.666 1.309,1.406 1.839,2.211 l 10e-4,-10e-4 0.041,0.068 c 0.143,0.22 0.279,0.444 0.408,0.672 l 34.829,51.061 0,-91.665 0,0 -47.688,32.792 z"
               id="path22" /></g><g
             id="g28"><path
               style="fill:#ffffff"
               inkscape:connector-curvature="0"
               d="m 47.689,67.302 c -3.826,-0.197 -7.29,-1.759 -9.916,-4.21 -0.225,-0.21 -0.442,-0.429 -0.655,-0.651 -0.691,-0.666 -1.309,-1.406 -1.839,-2.211 l -0.001,0.001 -0.041,-0.068 c -0.143,-0.22 -0.279,-0.444 -0.408,-0.672 L 0,8.429 l 0,91.665 0,0 47.689,-32.792 z"
               id="path26" /></g><g
             id="g32"><path
               style="fill:#ffffff"
               inkscape:connector-curvature="0"
               d="m 32.792,47.541 c 0.197,-3.826 1.759,-7.29 4.21,-9.916 0.21,-0.225 0.429,-0.442 0.651,-0.654 0.666,-0.691 1.406,-1.31 2.211,-1.839 l -10e-4,-10e-4 0.068,-0.041 c 0.22,-0.143 0.444,-0.279 0.672,-0.408 l 51.062,-34.83 -91.665,0 0,0 32.792,47.689 z"
               id="path30" /></g><g
             id="g36"><path
               style="fill:#ffffff"
               inkscape:connector-curvature="0"
               d="m 67.45,52.405 c -0.197,3.826 -1.76,7.29 -4.21,9.916 -0.21,0.225 -0.429,0.442 -0.651,0.654 -0.666,0.691 -1.406,1.309 -2.211,1.839 l 10e-4,0.001 -0.068,0.041 c -0.22,0.143 -0.444,0.279 -0.672,0.408 l -51.062,34.83 91.665,0 0,0 L 67.45,52.405 Z"
               id="path34" /></g></g></g></g></g><g
     inkscape:label="GalliumOS optimized"
     id="g3377"
     inkscape:groupmode="layer"
     style="display:inline"><g
       id="g3379"
       transform="matrix(2.9135791,0,0,2.9135791,66.566997,66.998207)"><g
         id="g3381" /><g
         id="g3383"><g
           id="g3385"><g
             id="g3387"><path
               id="path3389"
               d="m 52.553,32.644 c 3.826,0.197 7.29,1.759 9.916,4.211 0.225,0.21 0.442,0.429 0.654,0.651 0.691,0.666 1.309,1.406 1.839,2.211 l 10e-4,-10e-4 0.041,0.068 c 0.143,0.22 0.279,0.444 0.408,0.672 l 34.829,51.061 0,-91.665 0,0 -47.688,32.792 z"
               inkscape:connector-curvature="0"
               style="fill:#ffffff" /></g><g
             id="g3391"><path
               id="path3393"
               d="m 47.689,67.302 c -3.826,-0.197 -7.29,-1.759 -9.916,-4.21 -0.225,-0.21 -0.442,-0.429 -0.655,-0.651 -0.691,-0.666 -1.309,-1.406 -1.839,-2.211 l -0.001,0.001 -0.041,-0.068 c -0.143,-0.22 -0.279,-0.444 -0.408,-0.672 L 0,8.429 l 0,91.665 0,0 47.689,-32.792 z"
               inkscape:connector-curvature="0"
               style="fill:#ffffff" /></g><g
             id="g3395"><path
               id="path3397"
               d="m 32.792,47.541 c 0.197,-3.826 1.759,-7.29 4.21,-9.916 0.21,-0.225 0.429,-0.442 0.651,-0.654 0.666,-0.691 1.406,-1.31 2.211,-1.839 l -10e-4,-10e-4 0.068,-0.041 c 0.22,-0.143 0.444,-0.279 0.672,-0.408 l 51.062,-34.83 -91.665,0 0,0 32.792,47.689 z"
               inkscape:connector-curvature="0"
               style="fill:#ffffff" /></g><g
             id="g3399"><path
               id="path3401"
               d="m 67.45,52.405 c -0.197,3.826 -1.76,7.29 -4.21,9.916 -0.21,0.225 -0.429,0.442 -0.651,0.654 -0.666,0.691 -1.406,1.309 -2.211,1.839 l 10e-4,0.001 -0.068,0.041 c -0.22,0.143 -0.444,0.279 -0.672,0.408 l -51.062,34.83 91.665,0 0,0 L 67.45,52.405 Z"
               inkscape:connector-curvature="0"
               style="fill:#ffffff" /></g></g></g></g></g></svg>
